<svg width="41" height="42" viewBox="0 0 41 42" fill="none" xmlns="http://www.w3.org/2000/svg">
<g clip-path="url(#clip0_949_3)">
<path d="M10.3875 23.8014C9.89798 21.64 9.43337 19.5304 8.95216 17.4209C7.89847 12.735 6.8282 8.04906 5.78281 3.3545C5.69155 2.93951 5.5588 2.7666 5.11078 2.78389C3.89946 2.82711 2.67984 2.80118 1.46022 2.80118C0.60566 2.79253 0 2.21328 0 1.40059C0 0.587902 0.597364 0.00864561 1.45193 0C3.16105 0 4.86188 0 6.571 0C7.40067 0 7.86529 0.389053 8.05611 1.24497C8.35479 2.5591 8.67007 3.87323 8.94386 5.19601C9.01023 5.52455 9.13469 5.60236 9.44166 5.60236C14.3201 5.59371 19.1986 5.59371 24.0854 5.59371C28.1425 5.59371 32.1996 5.58506 36.2484 5.59371C38.6461 5.60236 40.5378 7.73782 40.2474 10.1759C40.1312 11.2134 39.8325 12.2249 39.6085 13.2451C38.8618 16.5563 38.1151 19.8763 37.3601 23.1875C36.8706 25.3403 35.3523 26.5766 33.2118 26.5766C25.8277 26.5766 18.4436 26.5766 11.0595 26.5766C10.877 26.5766 10.6945 26.568 10.5119 26.5939C9.83161 26.7149 9.3504 27.3547 9.40018 28.0637C9.44166 28.7467 9.98095 29.3173 10.653 29.3691C10.8023 29.3778 10.96 29.3778 11.1176 29.3778C18.5183 29.3778 25.9106 29.3778 33.3113 29.3864C33.6183 29.3864 33.9585 29.447 34.2406 29.5853C34.7549 29.8446 35.0039 30.5017 34.8877 31.0723C34.7632 31.6602 34.2903 32.1098 33.7179 32.1703C33.61 32.1876 33.4938 32.179 33.386 32.179C25.8775 32.179 18.3689 32.179 10.8604 32.179C8.78622 32.179 7.16007 30.7957 6.79501 28.7553C6.38018 26.4556 7.85699 24.2596 10.0722 23.8705C10.1552 23.8532 10.2464 23.8359 10.3875 23.8014ZM9.69057 8.39489C9.71546 8.53322 9.72375 8.63697 9.74035 8.73207C10.8521 13.6428 11.9722 18.5535 13.0673 23.4728C13.1337 23.7754 13.2747 23.7841 13.5071 23.7841C20.0947 23.7841 26.6739 23.7841 33.2615 23.7841C34.0912 23.7841 34.5475 23.395 34.7384 22.5391C35.6593 18.493 36.5719 14.4382 37.4929 10.392C37.775 9.12977 37.2025 8.38624 35.9497 8.38624C27.3543 8.38624 18.7506 8.38624 10.1552 8.38624C10.0058 8.39489 9.8565 8.39489 9.69057 8.39489Z" fill="white"/>
<path d="M14.7763 33.5881C16.9916 33.5881 18.8003 35.4729 18.792 37.7899C18.792 40.1069 16.9833 41.9744 14.7598 41.983C12.5611 41.983 10.7441 40.1069 10.7358 37.8245C10.7358 35.4729 12.5362 33.5881 14.7763 33.5881ZM14.7515 36.3807C14.0213 36.3893 13.424 37.0204 13.424 37.7813C13.424 38.5594 14.0545 39.1905 14.8012 39.1732C15.5313 39.1559 16.1204 38.5161 16.1038 37.7467C16.0955 36.9945 15.4816 36.372 14.7515 36.3807Z" fill="white"/>
<path d="M33.5601 37.8073C33.5518 40.1157 31.7349 41.9832 29.503 41.9745C27.2961 41.9659 25.4874 40.0552 25.504 37.7468C25.5206 35.4298 27.3376 33.571 29.5611 33.5796C31.7763 33.5883 33.5684 35.4903 33.5601 37.8073ZM30.872 37.79C30.8803 37.0292 30.2746 36.3894 29.5528 36.3808C28.8227 36.3722 28.2087 36.986 28.1922 37.7468C28.1756 38.5249 28.7895 39.1733 29.5362 39.1733C30.2663 39.1733 30.872 38.5508 30.872 37.79Z" fill="white"/>
</g>
<defs>
<clipPath id="clip0_949_3">
<rect width="40.2723" height="41.9744" fill="white"/>
</clipPath>
</defs>
</svg>
