<svg width="54" height="48" viewBox="0 0 54 48" fill="none" xmlns="http://www.w3.org/2000/svg">
<g clip-path="url(#clip0_813_461)">
<rect width="54" height="47.1429" fill="white"/>
<path d="M13.9283 26.7321C13.2719 24.3045 12.6489 21.9353 12.0037 19.566C10.5909 14.3031 9.15575 9.04017 7.75402 3.76754C7.63164 3.30146 7.45365 3.10725 6.8529 3.12667C5.22868 3.17522 3.59332 3.14609 1.95797 3.14609C0.812114 3.13638 0 2.4858 0 1.57305C0 0.660291 0.800989 0.00971017 1.94685 0C4.23857 0 6.51916 0 8.81088 0C9.92336 0 10.5464 0.436958 10.8022 1.39826C11.2027 2.87421 11.6255 4.35015 11.9926 5.83581C12.0816 6.2048 12.2485 6.29219 12.6601 6.29219C19.2015 6.28248 25.7429 6.28248 32.2954 6.28248C37.7355 6.28248 43.1755 6.27277 48.6044 6.28248C51.8195 6.29219 54.356 8.6906 53.9666 11.4289C53.8109 12.5941 53.4104 13.7302 53.11 14.876C52.1088 18.595 51.1075 22.3237 50.0952 26.0427C49.4388 28.4605 47.403 29.8491 44.5328 29.8491C34.6316 29.8491 24.7305 29.8491 14.8294 29.8491C14.5847 29.8491 14.3399 29.8393 14.0952 29.8685C13.1829 30.0044 12.5377 30.723 12.6044 31.5192C12.6601 32.2863 13.3832 32.9272 14.2843 32.9854C14.4845 32.9951 14.6959 32.9951 14.9073 32.9951C24.8307 32.9951 34.7429 32.9951 44.6663 33.0049C45.0779 33.0049 45.534 33.0728 45.9122 33.2282C46.602 33.5195 46.9357 34.2575 46.78 34.8983C46.6131 35.5586 45.979 36.0636 45.2114 36.1315C45.0667 36.151 44.911 36.1412 44.7664 36.1412C34.6984 36.1412 24.6304 36.1412 14.5624 36.1412C11.7812 36.1412 9.60074 34.5876 9.11125 32.296C8.55501 29.7131 10.5352 27.2467 13.5056 26.8098C13.6168 26.7904 13.7392 26.7709 13.9283 26.7321ZM12.9938 9.42857C13.0272 9.58393 13.0383 9.70046 13.0606 9.80727C14.5513 15.3226 16.0532 20.838 17.5216 26.3631C17.6106 26.703 17.7998 26.7127 18.1112 26.7127C26.9444 26.7127 35.7664 26.7127 44.5995 26.7127C45.712 26.7127 46.3239 26.2757 46.5797 25.3144C47.8146 20.77 49.0383 16.216 50.2732 11.6716C50.6514 10.2539 49.8838 9.41886 48.204 9.41886C36.6786 9.41886 25.1421 9.41886 13.6168 9.41886C13.4166 9.42857 13.2163 9.42857 12.9938 9.42857Z" fill="#BA7D68"/>
<path d="M19.8133 37.724C22.7836 37.724 25.2089 39.8408 25.1977 42.4431C25.1977 45.0455 22.7725 47.1429 19.7911 47.1526C16.843 47.1526 14.4066 45.0455 14.3955 42.482C14.3955 39.8408 16.8096 37.724 19.8133 37.724ZM19.7799 40.8604C18.8009 40.8701 18 41.5789 18 42.4334C18 43.3073 18.8454 44.0162 19.8467 43.9968C20.8257 43.9774 21.6155 43.2588 21.5933 42.3946C21.5822 41.5498 20.7589 40.8507 19.7799 40.8604Z" fill="#BA7D68"/>
<path d="M44.9999 42.4626C44.9888 45.0552 42.5524 47.1526 39.5598 47.1429C36.6006 47.1332 34.1754 44.9872 34.1977 42.3946C34.2199 39.7923 36.6563 37.7046 39.6377 37.7143C42.608 37.724 45.011 39.8602 44.9999 42.4626ZM41.3954 42.4431C41.4066 41.5887 40.5944 40.8701 39.6266 40.8604C38.6476 40.8507 37.8244 41.5401 37.8021 42.3946C37.7799 43.2685 38.6031 43.9968 39.6043 43.9968C40.5833 43.9968 41.3954 43.2976 41.3954 42.4431Z" fill="#BA7D68"/>
</g>
<defs>
<clipPath id="clip0_813_461">
<rect width="54" height="47.1429" fill="white"/>
</clipPath>
</defs>
</svg>
