<svg width="40" height="43" viewBox="0 0 40 43" fill="none" xmlns="http://www.w3.org/2000/svg">
<path d="M10.3677 23.9957C9.88633 21.8343 9.42942 19.7248 8.9562 17.6152C7.92 12.9293 6.86748 8.2434 5.83944 3.54883C5.74969 3.13384 5.61915 2.96093 5.17856 2.97822C3.98734 3.02145 2.78796 2.99551 1.58858 2.99551C0.748198 2.98687 0.152588 2.40761 0.152588 1.59493C0.152588 0.782238 0.740039 0.202982 1.58042 0.194336C3.26118 0.194336 4.93379 0.194336 6.61455 0.194336C7.43045 0.194336 7.88736 0.583389 8.07502 1.4393C8.36874 2.75344 8.67879 4.06757 8.94804 5.39035C9.01331 5.71888 9.13569 5.79669 9.43758 5.79669C14.2351 5.78805 19.0326 5.78805 23.8383 5.78805C27.8281 5.78805 31.8178 5.7794 35.7994 5.78805C38.1574 5.79669 40.0177 7.93216 39.7321 10.3702C39.6179 11.4077 39.3242 12.4192 39.1039 13.4394C38.3695 16.7507 37.6352 20.0706 36.8928 23.3819C36.4114 25.5346 34.9183 26.7709 32.8132 26.7709C25.5517 26.7709 18.2901 26.7709 11.0286 26.7709C10.8491 26.7709 10.6696 26.7623 10.4901 26.7882C9.82105 26.9093 9.34783 27.5491 9.39678 28.258C9.43758 28.941 9.96792 29.5116 10.6288 29.5635C10.7757 29.5721 10.9307 29.5721 11.0857 29.5721C18.3636 29.5721 25.6333 29.5721 32.9111 29.5808C33.213 29.5808 33.5476 29.6413 33.825 29.7796C34.3308 30.039 34.5756 30.6961 34.4614 31.2667C34.339 31.8546 33.8739 32.3041 33.3109 32.3647C33.2049 32.3819 33.0906 32.3733 32.9846 32.3733C25.6006 32.3733 18.2167 32.3733 10.8328 32.3733C8.79301 32.3733 7.19384 30.99 6.83484 28.9496C6.42689 26.6499 7.8792 24.4539 10.0577 24.0649C10.1393 24.0476 10.229 24.0303 10.3677 23.9957ZM9.68235 8.58922C9.70683 8.72755 9.71499 8.8313 9.7313 8.9264C10.8246 13.8371 11.9261 18.7478 13.0031 23.6672C13.0684 23.9698 13.2071 23.9784 13.4355 23.9784C19.9138 23.9784 26.3839 23.9784 32.8622 23.9784C33.6781 23.9784 34.1268 23.5894 34.3145 22.7334C35.2202 18.6873 36.1177 14.6325 37.0233 10.5864C37.3007 9.3241 36.7377 8.58058 35.5057 8.58058C27.053 8.58058 18.592 8.58058 10.1393 8.58058C9.99239 8.58923 9.84553 8.58922 9.68235 8.58922Z" fill="#BA7D68"/>
<path d="M14.6838 33.7827C16.8622 33.7827 18.6409 35.6675 18.6328 37.9845C18.6328 40.3015 16.8541 42.169 14.6675 42.1776C12.5053 42.1776 10.7185 40.3015 10.7103 38.0191C10.7103 35.6675 12.4808 33.7827 14.6838 33.7827ZM14.6593 36.5753C13.9413 36.5839 13.3539 37.215 13.3539 37.9758C13.3539 38.7539 13.9739 39.3851 14.7083 39.3678C15.4263 39.3505 16.0055 38.7107 15.9892 37.9413C15.9811 37.1891 15.3773 36.5666 14.6593 36.5753Z" fill="#BA7D68"/>
<path d="M33.1558 38.0014C33.1477 40.3098 31.3608 42.1772 29.166 42.1686C26.9957 42.16 25.2171 40.2493 25.2334 37.9409C25.2497 35.6239 27.0365 33.7651 29.2232 33.7737C31.4016 33.7824 33.164 35.6844 33.1558 38.0014ZM30.5123 37.9841C30.5204 37.2233 29.9248 36.5835 29.215 36.5749C28.497 36.5662 27.8932 37.1801 27.8769 37.9409C27.8606 38.719 28.4644 39.3674 29.1987 39.3674C29.9167 39.3674 30.5123 38.7449 30.5123 37.9841Z" fill="#BA7D68"/>
</svg>
