<svg width="54" height="54" viewBox="0 0 54 54" fill="none" xmlns="http://www.w3.org/2000/svg">
<path d="M2.63549 53.9998C1.67514 53.6908 0.832361 53.2246 0.366059 52.2698C-0.212527 51.0851 -0.0989235 49.9573 0.673845 48.8995C0.848213 48.6604 1.06485 48.4478 1.27621 48.2378C8.19678 41.3137 15.1187 34.3921 22.0392 27.468C22.1859 27.3214 22.3259 27.1695 22.5782 26.9067C22.38 26.768 22.1859 26.6703 22.0392 26.5237C15.0751 19.5665 8.1162 12.6067 1.15864 5.64559C-0.068541 4.4187 -0.328773 2.98976 0.417576 1.63082C1.33961 -0.0490498 3.58659 -0.515239 5.09514 0.668062C5.32895 0.851632 5.54559 1.06029 5.75694 1.2716C12.6815 8.1918 19.6034 15.1133 26.5226 22.0388C26.6692 22.1854 26.767 22.3795 26.907 22.5776C27.1699 22.3267 27.3218 22.1867 27.4684 22.0401C34.4286 15.0816 41.3875 8.1218 48.3477 1.16331C49.604 -0.0926312 51.0887 -0.342234 52.4559 0.462041C53.2961 0.955964 53.7135 1.74835 54.0001 2.63451C54.0001 2.9858 54.0001 3.33709 54.0001 3.68971C53.7571 4.68944 53.0966 5.40127 52.3912 6.10385C45.575 12.9052 38.7693 19.7184 31.9571 26.5237C31.8105 26.6703 31.6136 26.7654 31.4406 26.8843C31.4406 26.9595 31.4406 27.0361 31.4406 27.1114C31.6136 27.2303 31.8105 27.3267 31.9571 27.4719C38.7575 34.2654 45.5499 41.0667 52.3542 47.8548C53.0715 48.5706 53.7478 49.2904 54.0001 50.3073C54.0001 50.6586 54.0001 51.0099 54.0001 51.3625C53.8931 51.6372 53.798 51.9171 53.6765 52.1839C53.2181 53.1823 52.3635 53.6855 51.3635 53.9998C51.0121 53.9998 50.6607 53.9998 50.3094 53.9998C49.3094 53.7568 48.5987 53.0965 47.8959 52.3926C41.0942 45.5754 34.2807 38.7701 27.4737 31.9582C27.3271 31.8116 27.232 31.6148 27.0391 31.3335C26.7908 31.6386 26.6732 31.8129 26.5266 31.9595C19.7183 38.7701 12.9047 45.5767 6.10304 52.3926C5.40028 53.0965 4.6896 53.7568 3.68962 53.9998C3.33824 53.9998 2.98687 53.9998 2.63549 53.9998Z" fill="#BA7D68"/>
</svg>
