<svg width="26" height="26" viewBox="0 0 26 26" fill="none" xmlns="http://www.w3.org/2000/svg">
<path d="M1.26871 26C0.80632 25.8512 0.400534 25.6267 0.176016 25.167C-0.102564 24.5967 -0.0478652 24.0536 0.324211 23.5443C0.408166 23.4292 0.512475 23.3268 0.614239 23.2257C3.94639 19.8919 7.27917 16.5594 10.6113 13.2256C10.6819 13.155 10.7493 13.0819 10.8708 12.9554C10.7754 12.8886 10.6819 12.8415 10.6113 12.771C7.25818 9.42126 3.90759 6.07029 0.557633 2.71868C-0.0332366 2.12796 -0.158534 1.43996 0.200821 0.785666C0.644769 -0.0231461 1.72665 -0.247604 2.45299 0.322125C2.56557 0.410509 2.66988 0.510975 2.77164 0.612712C6.1057 3.94461 9.43848 7.27714 12.77 10.6116C12.8406 10.6822 12.8877 10.7756 12.9551 10.871C13.0816 10.7502 13.1548 10.6828 13.2254 10.6122C16.5766 7.26188 19.9272 3.91091 23.2784 0.560572C23.8833 -0.0441294 24.5982 -0.164307 25.2565 0.222931C25.661 0.460742 25.862 0.842257 26 1.26892C26 1.43806 26 1.6072 26 1.77697C25.883 2.25831 25.565 2.60104 25.2253 2.93932C21.9434 6.21399 18.6666 9.49438 15.3866 12.771C15.316 12.8415 15.2212 12.8873 15.1379 12.9446C15.1379 12.9808 15.1379 13.0177 15.1379 13.0539C15.2212 13.1111 15.316 13.1576 15.3866 13.2275C18.6609 16.4984 21.9313 19.773 25.2075 23.0413C25.5529 23.386 25.8785 23.7325 26 24.2221C26 24.3913 26 24.5604 26 24.7302C25.9485 24.8624 25.9027 24.9972 25.8442 25.1257C25.6235 25.6064 25.212 25.8487 24.7305 26C24.5613 26 24.3921 26 24.2229 26C23.7415 25.883 23.3993 25.5651 23.0609 25.2262C19.786 21.9439 16.5054 18.6673 13.2279 15.3875C13.1573 15.3169 13.1115 15.2222 13.0187 15.0868C12.8991 15.2336 12.8425 15.3176 12.7719 15.3882C9.49382 18.6673 6.21319 21.9445 2.93828 25.2262C2.59992 25.5651 2.25773 25.883 1.77626 26C1.60708 26 1.43789 26 1.26871 26Z" fill="#5D3E34"/>
</svg>
