<svg width="48" height="48" viewBox="0 0 48 48" fill="none" xmlns="http://www.w3.org/2000/svg">
<path d="M47.4241 22.2415C47.4241 23.2315 47.4241 24.2215 47.4241 25.2015C47.3541 25.7815 47.2941 26.3615 47.2041 26.9415C46.5241 31.6715 44.6241 35.8515 41.4441 39.4215C37.7941 43.5215 33.2541 46.0715 27.8441 47.0515C26.9641 47.2115 26.0841 47.3015 25.1941 47.4215C24.2041 47.4215 23.2241 47.4215 22.2341 47.4215C22.0841 47.3915 21.9341 47.3615 21.7841 47.3415C20.7941 47.2015 19.7941 47.1115 18.8141 46.9015C13.1441 45.6715 8.48409 42.7715 4.96409 38.1615C0.564092 32.3915 -0.925942 25.8915 0.554058 18.7815C1.84406 12.5615 5.22409 7.6515 10.4641 4.0915C15.6541 0.561498 21.414 -0.658502 27.604 0.331498C32.084 1.0515 36.0241 2.9515 39.4141 5.9715C43.5241 9.6415 46.0941 14.1915 47.0541 19.6215C47.2141 20.5015 47.3041 21.3715 47.4241 22.2415ZM23.7041 34.4915C27.7341 34.4915 31.7541 34.4915 35.7841 34.4915C37.7841 34.4915 39.0041 33.2615 39.0041 31.2515C39.0041 26.2415 39.0041 21.2215 39.0041 16.2115C39.0041 14.1715 37.7941 12.9515 35.7641 12.9515C27.7441 12.9515 19.7241 12.9515 11.7041 12.9515C9.67408 12.9515 8.46409 14.1715 8.46409 16.2115C8.46409 21.1915 8.50407 26.1815 8.44407 31.1615C8.42407 33.0415 9.73409 34.5415 11.7741 34.5115C15.7441 34.4515 19.7241 34.4915 23.7041 34.4915Z" fill="#BA7D68"/>
<path d="M36.544 16.6416C36.544 16.9216 36.544 17.0716 36.544 17.2216C36.544 21.8516 36.544 26.4816 36.544 31.1116C36.544 31.9516 36.454 32.0516 35.614 32.0516C27.684 32.0516 19.754 32.0516 11.824 32.0516C10.994 32.0516 10.9041 31.9616 10.9041 31.1116C10.9041 26.4816 10.9041 21.8516 10.9041 17.2216C10.9041 17.0716 10.9041 16.9216 10.9041 16.6516C11.1041 16.8016 11.234 16.8916 11.354 16.9916C15.154 20.0116 18.964 23.0316 22.764 26.0616C23.474 26.6216 23.9641 26.6316 24.6641 26.0616C28.4041 23.0916 32.154 20.1116 35.894 17.1416C36.084 17.0016 36.264 16.8616 36.544 16.6416Z" fill="#BA7D68"/>
<path d="M13.364 15.4214C20.294 15.4214 27.154 15.4214 34.014 15.4214C34.054 15.4614 34.094 15.4914 34.134 15.5314C34.024 15.5914 33.894 15.6414 33.794 15.7214C30.554 18.2914 27.314 20.8614 24.084 23.4314C23.844 23.6214 23.684 23.6614 23.424 23.4514C20.174 20.8514 16.904 18.2614 13.644 15.6714C13.554 15.6114 13.484 15.5314 13.364 15.4214Z" fill="#BA7D68"/>
</svg>