<svg width="81" height="81" viewBox="0 0 81 81" fill="none" xmlns="http://www.w3.org/2000/svg">
<circle cx="40.5" cy="40.5" r="40.5" fill="#BA7D68"/>
<path d="M15 59.6376C15 46.7198 15 33.7907 15 20.8728C15.0336 20.7599 15.0785 20.647 15.1009 20.5341C15.7398 16.6836 18.8447 14.0074 22.7455 14.0074C34.9633 13.9961 47.1812 13.9961 59.3991 14.0187C60.251 14.0187 61.1365 14.1655 61.9435 14.4252C65.1717 15.5092 67.1445 18.3886 67.1445 21.9004C67.1445 34.1407 67.1445 46.3697 67.1445 58.61C67.1445 58.7794 67.1445 58.9488 67.1333 59.1182C66.9204 62.0992 65.5192 64.335 62.8627 65.6787C62.078 66.0739 61.1701 66.232 60.3182 66.503C55.4647 66.503 50.6112 66.503 45.7577 66.503C45.7577 60.2925 45.7577 54.0707 45.7577 47.8264C48.4142 47.8264 51.0035 47.8264 53.6264 47.8264C53.9627 45.7713 54.299 43.7613 54.6464 41.6723C51.6536 41.6723 48.7168 41.6723 45.7801 41.6723C45.7689 41.5594 45.7577 41.503 45.7577 41.4578C45.7577 39.5608 45.7465 37.6637 45.7577 35.7667C45.7689 33.7568 47.0467 32.4695 49.0419 32.4695C50.8017 32.4582 52.5728 32.4695 54.3326 32.4695C54.5119 32.4695 54.6913 32.4695 54.8818 32.4695C54.8818 30.3918 54.8818 28.3706 54.8818 26.3155C52.4046 26.3155 49.9611 26.3155 47.5175 26.3155C42.9666 26.3268 39.6487 29.6691 39.6375 34.2423C39.6375 36.5346 39.6375 38.8268 39.6375 41.119C39.6375 41.2997 39.6375 41.4804 39.6375 41.7175C37.575 41.7175 35.5574 41.7175 33.551 41.7175C33.551 43.7839 33.551 45.7938 33.551 47.8602C35.5798 47.8602 37.5863 47.8602 39.6375 47.8602C39.6375 54.1159 39.6375 60.3151 39.6375 66.5256C33.6967 66.5256 27.7559 66.5256 21.8151 66.5256C21.7254 66.4917 21.6246 66.4465 21.5237 66.4352C18.8223 65.9836 16.8607 64.5156 15.7062 62.0314C15.3811 61.2749 15.2354 60.428 15 59.6376ZM48.8289 63.4316C49.0083 63.4316 49.1428 63.4316 49.2773 63.4316C52.6064 63.4316 55.9243 63.4316 59.2534 63.4316C62.1117 63.4203 64.0733 61.4443 64.0845 58.5649C64.0845 46.3584 64.0845 34.1633 64.0845 21.9568C64.0845 19.0661 62.1229 17.0901 59.2646 17.0788C47.1364 17.0788 34.997 17.0788 22.8688 17.0788C20.0329 17.0788 18.0713 19.0661 18.0713 21.923C18.0713 34.1407 18.0713 46.3697 18.0713 58.5875C18.0713 59.0391 18.1161 59.5134 18.2282 59.9538C18.8111 62.0992 20.5261 63.4203 22.7567 63.4316C27.2515 63.4429 31.7463 63.4316 36.2524 63.4316C36.3645 63.4316 36.4766 63.3978 36.5662 63.3865C36.5662 59.2198 36.5662 55.087 36.5662 50.909C34.5262 50.909 32.5198 50.909 30.5245 50.909C30.5245 46.7762 30.5245 42.7112 30.5245 38.5897C32.5646 38.5897 34.5598 38.5897 36.5886 38.5897C36.5886 37.0992 36.5886 35.6538 36.5886 34.2085C36.5886 32.9664 36.7456 31.7468 37.1491 30.5838C38.7408 26.0558 42.664 23.2554 47.4278 23.2328C50.7681 23.2215 54.1196 23.2328 57.4599 23.2328C57.6168 23.2328 57.785 23.2441 57.9419 23.2554C57.9419 27.3656 57.9419 31.4307 57.9419 35.5409C54.893 35.5409 51.8666 35.5409 48.8402 35.5409C48.8402 36.591 48.8402 37.596 48.8402 38.6348C51.9899 38.6348 55.0948 38.6348 58.2446 38.6348C57.5608 42.7563 56.8883 46.8214 56.2045 50.9316C53.7161 50.9316 51.2837 50.9316 48.8289 50.9316C48.8289 55.1096 48.8289 59.2311 48.8289 63.4316Z" fill="white"/>
</svg>
