<svg width="81" height="81" viewBox="0 0 81 81" fill="none" xmlns="http://www.w3.org/2000/svg">
<circle cx="40.5" cy="40.5" r="40.5" fill="#BA7D68"/>
<path d="M58.566 55.6956C57.064 55.6956 55.618 55.6956 54.1496 55.6956C54.1496 54.8939 54.1496 54.1261 54.1496 53.3244C56.5259 53.3244 58.9023 53.3244 61.2898 53.3244C61.7269 55.8198 60.1689 60.0204 55.9431 61.4206C52.1208 62.6853 47.9622 60.7995 46.3257 57.0958C44.6668 53.3469 46.1015 49.056 49.7108 46.9558C52.939 45.0813 57.4675 45.9734 59.5412 48.8641C58.9807 49.4174 58.4315 49.9594 57.8374 50.5466C56.8062 49.2593 55.405 48.4463 53.6228 48.4011C52.4346 48.3785 51.3586 48.7173 50.3834 49.3948C48.4106 50.795 47.5923 53.3131 48.3433 55.594C49.0943 57.8749 51.2465 59.3993 53.6452 59.3542C55.8422 59.3203 57.9495 57.7846 58.566 55.6956Z" fill="white"/>
<path d="M40.7549 66.6713C33.7044 66.6713 26.6427 66.6148 19.5922 66.7052C17.0477 66.739 15.3551 64.9549 15.3776 62.4933C15.456 55.2214 15.4 47.9495 15.4112 40.6775C15.4112 40.2597 15.2991 39.9662 15.0189 39.6613C13.8195 38.3514 13.1582 36.7819 13.0124 35.0091C12.9788 34.5913 13.0124 34.1509 13.1245 33.7557C14.436 28.9228 15.7587 24.1012 17.0925 19.2683C17.7539 16.8744 19.5473 15.5081 22.0245 15.5081C34.545 15.5081 47.0656 15.5081 59.5861 15.5081C62.0969 15.5081 63.8679 16.8744 64.5517 19.3135C65.8744 24.1238 67.197 28.9228 68.5085 33.7331C68.8672 35.0542 68.5197 36.3302 67.9817 37.5158C67.623 38.295 67.0513 38.9725 66.6029 39.7177C66.4348 40.0113 66.2443 40.3501 66.2443 40.6775C66.2218 47.9833 66.233 55.3004 66.233 62.6062C66.233 65.2033 64.7647 66.6826 62.1866 66.6939C55.024 66.6713 47.895 66.6713 40.7549 66.6713ZM17.8211 41.7503C17.8211 41.9761 17.8211 42.1681 17.8211 42.3713C17.8211 49.1351 17.8211 55.8876 17.8211 62.6514C17.8211 63.8596 18.2022 64.2435 19.424 64.2435C33.6707 64.2435 47.9174 64.2435 62.1642 64.2435C63.4084 64.2435 63.7783 63.8709 63.7783 62.6062C63.7783 55.865 63.7783 49.1238 63.7783 42.3826C63.7783 42.1794 63.7783 41.9761 63.7783 41.7503C59.7542 43.0714 56.526 41.9648 54.0376 38.5773C52.4347 40.9711 50.2489 42.3149 47.3906 42.2923C44.4987 42.2697 42.3802 40.7905 40.7885 38.3853C39.1968 40.813 37.0895 42.2584 34.2088 42.2923C31.328 42.3261 29.1423 40.9711 27.5394 38.5773C25.0622 41.9761 21.8452 43.0601 17.8211 41.7503ZM39.5667 17.981C36.6748 17.981 33.8277 17.981 30.9581 17.981C30.2968 22.8478 29.6355 27.6694 28.9741 32.5136C32.5162 32.5136 36.0246 32.5136 39.5667 32.5136C39.5667 27.6694 39.5667 22.8365 39.5667 17.981ZM42.0439 17.9584C42.0439 22.8252 42.0439 27.6581 42.0439 32.5136C45.586 32.5136 49.0944 32.5136 52.6252 32.5136C51.9527 27.6355 51.2914 22.8026 50.63 17.9584C47.7381 17.9584 44.9134 17.9584 42.0439 17.9584ZM26.5306 32.5362C27.2031 27.6581 27.8644 22.8252 28.5258 17.9584C28.2904 17.9471 28.1335 17.9246 27.9765 17.9246C25.9813 17.9246 23.9861 17.9246 21.9909 17.9246C20.6122 17.9246 19.7827 18.5795 19.4016 19.9345C18.2919 23.9883 17.1934 28.0307 16.0837 32.0732C16.0501 32.22 16.0389 32.3668 16.0053 32.5362C19.5361 32.5362 22.9997 32.5362 26.5306 32.5362ZM55.08 32.5249C58.6333 32.5249 62.1081 32.5249 65.6053 32.5249C65.5941 32.3894 65.5941 32.2877 65.5717 32.1974C64.4396 28.0759 63.3187 23.9544 62.1866 19.8329C61.8391 18.5682 60.9648 17.9359 59.6421 17.9359C57.6469 17.9246 55.6517 17.9359 53.6565 17.9359C53.4883 17.9359 53.309 17.9584 53.096 17.9697C53.7574 22.8478 54.4187 27.6694 55.08 32.5249ZM55.4387 35.0091C55.5508 37.7981 58.2858 40.0678 61.189 39.842C63.7783 39.6387 66.2779 37.1432 66.0201 35.0091C62.5116 35.0091 58.992 35.0091 55.4387 35.0091ZM15.5345 35.0091C15.6242 37.753 18.3031 40.0226 21.2063 39.8532C23.8068 39.6952 26.2952 37.2674 26.127 35.0091C22.6186 35.0091 19.099 35.0091 15.5345 35.0091ZM28.862 35.0091C29.2319 38.0014 31.7204 40.0791 34.5899 39.842C37.1455 39.6387 39.4546 37.3239 39.4098 35.0091C35.9013 35.0091 32.3929 35.0091 28.862 35.0091ZM42.1672 35.0204C42.5371 38.0127 45.0255 40.0791 47.895 39.8532C50.4507 39.65 52.7598 37.3352 52.7149 34.9978C49.3522 34.9978 45.9895 34.9978 42.6268 34.9978C42.4698 34.9978 42.3353 35.0091 42.1672 35.0204Z" fill="white"/>
</svg>
