<svg width="81" height="81" viewBox="0 0 81 81" fill="none" xmlns="http://www.w3.org/2000/svg">
<path d="M81 40.5C81 62.8675 62.8675 81 40.5 81C18.1325 81 0 62.8675 0 40.5C0 18.1325 18.1325 0 40.5 0C62.8675 0 81 18.1325 81 40.5Z" fill="#BA7D68"/>
<rect x="16.5" y="16.5" width="49.5182" height="48.5803" rx="8.5" stroke="white" stroke-width="3"/>
<path d="M27.0004 41.0389C27.059 33.8292 33.2223 27.955 40.6862 28.0003C48.1736 28.0455 54.2666 34.0329 54.1963 41.254C54.126 48.4637 47.951 54.3153 40.487 54.2587C33.0114 54.2021 26.9418 48.2487 27.0004 41.0389ZM40.5222 49.539C45.3263 49.5729 49.2516 45.8492 49.2868 41.22C49.3219 36.5569 45.4552 32.7539 40.6394 32.72C35.8353 32.686 31.9217 36.4097 31.8748 41.0502C31.8397 45.7247 35.6947 49.505 40.5222 49.539Z" fill="white"/>
<path d="M56.7604 27.6267C55.1891 27.6161 53.9895 26.3846 54.0001 24.8027C54.0107 23.2527 55.2635 22.0106 56.8135 22C58.3211 22 59.6269 23.3058 59.6269 24.824C59.6269 26.3846 58.3317 27.6479 56.7604 27.6267Z" fill="white"/>
</svg>
