<svg width="45" height="45" viewBox="0 0 45 45" fill="none" xmlns="http://www.w3.org/2000/svg">
<path d="M44.3786 21.3429C44.3786 22.2629 44.3786 23.1829 44.3786 24.1029C44.3186 24.6229 44.2585 25.1529 44.1885 25.6729C43.5685 30.0829 41.8086 33.9829 38.8586 37.3129C35.4586 41.1429 31.2186 43.5329 26.1686 44.4429C25.3486 44.5929 24.5286 44.6729 23.7086 44.7829C22.7886 44.7829 21.8686 44.7829 20.9486 44.7829C20.8386 44.7629 20.7286 44.7229 20.6186 44.7129C15.7986 44.3229 11.5186 42.5929 7.90864 39.3829C2.24864 34.3629 -0.261383 28.0229 0.388617 20.5029C0.808617 15.7429 2.68864 11.5429 5.90864 8.00294C10.1986 3.28294 15.5686 0.822943 21.9586 0.662943C26.1286 0.562943 30.0486 1.58294 33.6086 3.76294C39.3086 7.26294 42.8187 12.3129 44.0487 18.9129C44.1887 19.7229 44.2586 20.5329 44.3786 21.3429ZM22.3586 37.1529C24.0086 35.1229 25.6286 33.2129 27.1686 31.2329C29.0886 28.7629 30.8486 26.1729 32.1686 23.3229C33.0586 21.4029 33.4885 19.4329 33.0686 17.3029C32.2085 12.9429 28.9286 9.55294 24.5986 8.60294C20.3386 7.67294 15.8786 9.42294 13.3486 13.0629C11.8786 15.1829 11.1686 17.5529 11.4686 20.1429C11.6586 21.8029 12.3887 23.3029 13.1787 24.7529C14.9287 28.0229 17.1586 30.9529 19.4986 33.8029C20.3986 34.9029 21.3386 35.9729 22.3586 37.1529Z" fill="#BA7D68"/>
<path d="M26.4486 21.3829C26.4486 23.6729 24.6086 25.5229 22.3286 25.5329C20.0286 25.5429 18.1687 23.6829 18.1687 21.3829C18.1687 19.1029 20.0187 17.2529 22.3087 17.2529C24.5987 17.2529 26.4486 19.0929 26.4486 21.3829Z" fill="#BA7D68"/>
</svg>