<svg width="114" height="129" viewBox="0 0 114 129" fill="none" xmlns="http://www.w3.org/2000/svg">
<path d="M14.25 0L49.875 0L49.875 67.7579C49.875 69.1811 51.6027 69.9724 52.769 69.0833L67.6876 57.7105L82.606 69.0833C83.7723 69.9724 85.5 69.1811 85.5 67.7579L85.5 0C93.37 0 99.75 6.07951 99.75 13.579L99.75 101.842C99.75 109.342 93.37 115.421 85.5 115.421H10.6875L17.8125 122.211H89.0625C98.9 122.211 106.875 114.611 106.875 105.237L106.875 20.3684C110.81 20.3684 114 23.4082 114 27.1579L114 105.237C114 118.361 102.835 129 89.0625 129H17.2013C15.3116 129 13.4993 128.285 12.1631 127.011L2.08687 117.41C0.750666 116.136 0 114.409 0 112.609L3.73721e-05 13.5789C3.73721e-05 6.0795 6.37998 0 14.25 0Z" fill="white"/>
<path fill-rule="evenodd" clip-rule="evenodd" d="M78.0315 25.687C78.0315 23.712 77.3894 22.0966 76.3234 20.8312C76.4945 20.3727 77.0644 18.5321 76.1585 16.0418C76.1585 16.0418 74.7644 15.5558 71.5899 17.897C70.2633 17.4952 68.8409 17.2943 67.428 17.2878C66.015 17.2943 64.5926 17.4952 63.2676 17.897C60.0915 15.5558 58.6958 16.0418 58.6958 16.0418C57.79 18.5321 58.3614 20.3727 58.5326 20.8312C57.4681 22.0966 56.8213 23.712 56.8213 25.687C56.8213 32.6216 60.7023 34.1738 64.3932 34.6307C64.3932 34.6307 61.74 36.327 61.74 39.1786C60.7933 39.642 56.7868 41.0613 55.3032 38.2956C55.3032 38.2956 54.4255 36.5587 52.7567 36.4307C52.7567 36.4307 51.1333 36.4081 52.6421 37.5309C52.6421 37.5309 53.7316 38.0882 54.4883 40.1783C54.4883 40.1783 55.3298 44.5821 61.6866 42.6038C61.751 42.6378 61.7102 44.7344 61.7102 45.1637H73.1489C73.1489 45.1637 73.1677 40.956 73.1677 39.6177C73.1677 36.327 71.0389 35.1751 70.4407 34.6161C74.1443 34.1689 78.0315 32.6394 78.0315 25.687Z" fill="white"/>
</svg>
