<svg width="81" height="81" viewBox="0 0 81 81" fill="none" xmlns="http://www.w3.org/2000/svg">
<circle cx="40.5" cy="40.5" r="40.5" fill="#BA7D68"/>
<path d="M40.8513 34.3759C40.7681 34.869 40.7311 35.3804 40.6016 35.8644C40.167 37.4443 38.5671 37.8826 37.3926 36.7137C36.9117 36.2297 36.4678 35.6909 36.0979 35.1156C32.8889 30.1385 29.6983 25.1524 26.5078 20.1662C26.2766 19.8009 26.0639 19.4265 25.9067 19.0247C25.6292 18.3307 25.768 17.7097 26.3876 17.2896C27.0442 16.8421 27.7655 16.4768 28.4961 16.1481C31.215 14.9335 34.0819 14.2303 37.0597 14.0203C37.0874 14.0203 37.1244 14.0112 37.1522 14.0112C38.8723 13.9107 39.5011 14.4769 39.6121 16.1755C39.9913 21.6822 40.3704 27.1889 40.7496 32.6956C40.8051 33.2526 40.8236 33.8005 40.8513 34.3759Z" stroke="white" stroke-width="3" stroke-miterlimit="10"/>
<path d="M38.483 63.0135C37.5925 62.8199 36.6839 62.6632 35.8026 62.4327C33.8854 61.9349 32.1227 61.0776 30.4963 59.9345C29.3333 59.1232 29.2333 58.1645 30.1874 57.0029C32.3408 54.394 34.5033 51.7943 36.6658 49.1854C36.8021 49.0287 36.9293 48.8628 37.0655 48.7061C37.9196 47.7381 39.2826 47.6736 40.2457 48.5401C40.7727 49.0195 40.8363 49.6648 40.8363 50.3101C40.8545 51.9511 40.8545 53.5828 40.8454 55.2237C40.8272 57.1135 40.8181 59.0126 40.7545 60.9024C40.7454 61.3541 40.6727 61.8612 40.4547 62.2299C40.2457 62.571 39.7823 62.7554 39.437 63.0135C39.1099 63.0135 38.801 63.0135 38.483 63.0135Z" stroke="white" stroke-width="3" stroke-miterlimit="10"/>
<path d="M44.6216 47.8604C44.7201 46.3405 46.1703 45.3058 47.6027 45.7911C50.5928 46.7983 53.5739 47.8238 56.5551 48.8402C57.0564 49.0141 57.5667 49.1698 58.0412 49.3987C58.7932 49.7558 59.1155 50.5432 58.8648 51.349C58.3635 52.9971 57.4145 54.3797 56.376 55.6983C55.6777 56.5864 54.881 57.4105 54.0574 58.1888C53.6277 58.6008 53.0637 58.903 52.5176 59.141C51.9267 59.3974 51.3896 59.1502 50.9867 58.6374C50.8882 58.5092 50.8077 58.3811 50.7271 58.2437C48.8471 55.158 46.9671 52.0723 45.105 48.9867C44.8991 48.6296 44.7827 48.2358 44.6216 47.8604Z" stroke="white" stroke-width="3" stroke-miterlimit="10"/>
<path d="M58.9488 36.7571C58.9394 37.5104 58.6589 37.9588 58.126 38.2189C57.7801 38.3893 57.4062 38.5238 57.0322 38.6135C53.6573 39.4296 50.2823 40.2457 46.9073 41.0528C45.2899 41.4384 43.9343 40.5954 43.8689 39.1067C43.8502 38.6673 44.0465 38.1382 44.3177 37.7705C46.4586 34.9366 48.6369 32.1297 50.8058 29.3137C50.8993 29.1882 51.0115 29.0716 51.1237 28.955C51.8716 28.2106 52.7317 28.103 53.5544 28.7667C54.2369 29.3137 54.8633 29.9325 55.4523 30.5782C56.8639 32.1386 57.9297 33.8963 58.687 35.8334C58.8179 36.1921 58.8927 36.5598 58.9488 36.7571Z" stroke="white" stroke-width="3" stroke-miterlimit="10"/>
<path d="M22 43.2606C22.0993 42.0835 22.2076 40.5109 22.3611 38.9477C22.4062 38.4674 22.5597 37.9871 22.7493 37.5445C23.0652 36.81 23.6971 36.5087 24.4645 36.6593C24.7985 36.7253 25.1415 36.8194 25.4575 36.9607C28.5899 38.2791 31.7134 39.6069 34.8459 40.9346C35.9743 41.4149 36.3986 42.1212 36.3173 43.336C36.2632 44.1176 35.9292 44.7485 35.207 45.0216C33.907 45.5113 32.589 45.9445 31.2801 46.3871C29.1677 47.0934 27.0553 47.7808 24.9429 48.4777C23.1645 49.0615 22.2708 48.4306 22.1535 46.4624C22.0993 45.5301 22.0632 44.5979 22 43.2606Z" stroke="white" stroke-width="3" stroke-miterlimit="10"/>
</svg>
