<svg width="48" height="48" viewBox="0 0 48 48" fill="none" xmlns="http://www.w3.org/2000/svg">
<path d="M47.0487 22.3423C47.0487 23.2623 47.0487 24.1823 47.0487 25.1023C46.9787 25.7123 46.9187 26.3123 46.8287 26.9223C46.0187 32.4923 43.5787 37.2223 39.4587 41.0523C36.0687 44.1923 32.0887 46.1523 27.5387 46.9323C26.6687 47.0823 25.7887 47.1723 24.9087 47.2923C23.9887 47.2923 23.0687 47.2923 22.1487 47.2923C21.5387 47.2223 20.9387 47.1623 20.3287 47.0723C14.7987 46.2623 10.0587 43.8823 6.29874 39.7323C0.998741 33.9223 -0.951259 27.0523 0.428741 19.3123C1.34874 14.1423 3.84874 9.80234 7.71874 6.27234C11.0787 3.20234 15.0187 1.27234 19.5087 0.512344C20.3787 0.362344 21.2587 0.272344 22.1387 0.152344C23.0587 0.152344 23.9787 0.152344 24.8987 0.152344C25.5087 0.222344 26.1087 0.282344 26.7187 0.372344C31.3987 1.04234 35.5487 2.91234 39.0887 6.06234C43.1887 9.71234 45.7287 14.2623 46.6887 19.6723C46.8387 20.5523 46.9287 21.4523 47.0487 22.3423ZM29.7987 36.0423C30.7787 36.0423 31.7287 35.8523 32.6287 35.4323C33.7587 34.9123 34.5787 34.0123 35.4287 33.1623C36.0587 32.5323 36.0587 32.0323 35.4187 31.3923C34.0687 30.0323 32.7187 28.6723 31.3587 27.3223C30.7487 26.7123 30.2187 26.7123 29.6187 27.3123C28.8687 28.0623 28.1387 28.8223 27.3887 29.5723C26.4987 30.4623 25.4287 30.5523 24.4087 29.8123C21.7687 27.9223 19.4887 25.6823 17.5487 23.0823C16.7287 21.9723 16.7987 20.9423 17.7787 19.9523C18.5487 19.1823 19.3187 18.4123 20.0787 17.6423C20.6287 17.0823 20.6287 16.5623 20.0787 15.9923C18.6887 14.5823 17.2887 13.1823 15.8887 11.7923C15.3487 11.2623 14.8287 11.2723 14.2787 11.7923C13.8287 12.2323 13.3787 12.6723 12.9487 13.1323C11.5387 14.6223 10.8987 16.3823 11.1887 18.4323C11.3887 19.8823 11.9887 21.2023 12.6587 22.4723C15.5187 27.8823 19.6987 31.9623 25.1887 34.6523C26.6387 35.3523 28.1487 35.9323 29.7987 36.0423Z" fill="#BA7D68"/>
</svg>