<svg width="79" height="90" viewBox="0 0 79 90" fill="none" xmlns="http://www.w3.org/2000/svg">
<g clip-path="url(#clip0_804_281)">
<path d="M41.4307 0C43.2228 0.387476 45.0642 0.629354 46.8001 1.18826C57.1143 4.50176 63.9944 14.6677 63.1616 25.2352C62.2773 36.4626 54.2009 45.3652 43.2932 47.1405C29.8262 49.3315 17.3187 39.7198 15.9277 26.1088C14.6071 13.193 24.0299 1.52642 36.8893 0.15499C37.1168 0.131507 37.3397 0.0540117 37.5649 0.00234834C38.855 0 40.1428 0 41.4307 0ZM39.5353 5.27436C29.3806 5.25793 21.0883 13.5194 21.0649 23.6712C21.0414 33.8395 29.2797 42.1503 39.4203 42.1879C49.6126 42.2254 57.9306 33.9382 57.9377 23.744C57.9424 13.5804 49.683 5.2908 39.5353 5.27436Z" fill="#BA7D68"/>
<path d="M39.4412 90C27.3888 90 15.3363 90 3.28388 90C0.926406 90 -0.0330036 89.0372 -0.000163204 86.7076C0.22972 70.2411 12.3033 56.0806 28.5781 53.2415C30.213 52.9573 31.8856 52.7953 33.5463 52.7648C37.4074 52.6943 41.2732 52.6239 45.1296 52.7601C58.7396 53.2344 68.688 59.6971 75.1739 71.5632C77.7871 76.3444 78.9224 81.5577 78.9999 86.9988C79.028 88.9198 77.9607 89.9953 76.0348 89.9976C63.837 90.0023 51.6391 90 39.4412 90ZM73.675 84.6904C73.4451 83.3425 73.2739 82.0978 73.0182 80.872C70.3253 67.9491 58.5121 58.1918 45.3361 58.025C41.4163 57.9757 37.4942 57.9546 33.5768 58.0485C31.8058 58.0908 29.9972 58.2646 28.2778 58.6779C17.0886 61.3597 9.85197 68.3295 6.40607 79.2634C5.86185 80.9941 5.64839 82.8282 5.26369 84.6951C28.1675 84.6904 50.8298 84.6904 73.675 84.6904Z" fill="#BA7D68"/>
</g>
<defs>
<clipPath id="clip0_804_281">
<rect width="79" height="90" fill="white"/>
</clipPath>
</defs>
</svg>
